<?xml version="1.0" standalone="no"?>
<!DOCTYPE svg PUBLIC "-//W3C//DTD SVG 20010904//EN"
 "http://www.w3.org/TR/2001/REC-SVG-20010904/DTD/svg10.dtd">
<svg version="1.0" xmlns="http://www.w3.org/2000/svg"
 width="282.000000pt" height="282.000000pt" viewBox="0 0 282.000000 282.000000"
 preserveAspectRatio="xMidYMid meet">
<metadata>
Created by potrace 1.15, written by Peter Selinger 2001-2017
</metadata>
<g transform="translate(0.000000,282.000000) scale(0.100000,-0.100000)"
fill="#000000" stroke="none">
<path d="M215 2788 c-10 -45 19 -67 94 -70 95 -3 132 2 153 22 36 33 18 46
-74 54 -45 4 -84 11 -86 16 -2 6 -21 10 -42 10 -35 0 -39 -3 -45 -32z"/>
<path d="M1456 2804 c-11 -29 -6 -61 12 -78 16 -14 36 -15 150 -10 115 6 131
9 135 26 3 10 0 18 -6 18 -7 0 -5 5 3 10 29 19 -11 30 -112 30 -59 0 -98 4
-98 10 0 17 -77 12 -84 -6z"/>
<path d="M293 2455 c-66 -29 -92 -118 -53 -183 27 -44 62 -56 118 -42 25 6 47
9 49 6 14 -13 -32 -120 -72 -169 -84 -104 -42 -122 52 -24 40 43 63 75 67 98
4 19 12 55 18 81 14 57 -2 171 -29 201 -20 22 -73 47 -100 47 -10 -1 -33 -7
-50 -15z m97 -55 c12 -12 20 -33 20 -54 0 -43 -29 -66 -82 -66 -32 0 -40 4
-48 26 -6 14 -10 34 -10 44 0 10 4 30 10 44 8 22 16 26 50 26 27 0 47 -7 60
-20z"/>
<path d="M790 2451 c-41 -13 -104 -56 -135 -93 -89 -105 -100 -248 -25 -326
l22 -24 -18 -66 c-9 -37 -18 -87 -19 -112 -3 -80 -4 -82 -21 -72 -26 14 -106
-3 -126 -28 -32 -40 -42 -91 -25 -132 22 -53 60 -75 101 -60 47 17 56 15 56
-14 0 -55 -66 -141 -149 -195 -15 -9 -21 -20 -17 -27 13 -21 44 -13 81 20 30
26 38 29 46 17 5 -8 9 -20 9 -27 0 -7 14 -43 31 -80 57 -124 57 -152 -3 -152
-16 0 -28 -4 -28 -10 0 -15 39 -32 61 -25 15 5 22 0 30 -24 12 -34 35 -51 68
-51 24 0 28 -15 6 -24 -8 -3 -25 -26 -37 -51 -22 -44 -23 -45 -70 -45 -33 0
-48 -4 -48 -13 0 -19 21 -37 42 -37 16 0 18 -9 18 -76 0 -91 19 -98 36 -13 17
80 23 89 55 89 23 0 30 -5 36 -27 10 -44 42 -110 75 -159 17 -25 29 -46 27
-48 -10 -7 -102 -58 -173 -96 -67 -35 -81 -39 -88 -27 -26 48 -122 72 -166 41
-35 -24 -27 -37 21 -32 54 6 112 -24 98 -50 -18 -34 -52 -62 -74 -62 -23 0
-98 -35 -155 -71 l-32 -21 2 115 c2 84 -1 119 -10 129 -23 23 -32 -12 -32
-134 l0 -116 -32 -11 c-18 -6 -72 -34 -119 -61 -48 -28 -90 -50 -93 -50 -4 0
-4 19 -1 43 3 23 2 60 -4 82 -7 31 -9 9 -8 -100 l2 -140 44 -3 c28 -2 47 1 52
10 7 10 9 10 9 1 0 -9 18 -13 55 -13 49 0 57 3 64 23 5 12 22 37 39 55 l31 33
12 -36 c16 -44 27 -45 31 -2 2 24 7 31 21 29 9 -2 17 2 17 8 0 5 5 10 11 10 8
0 8 -4 0 -14 -6 -7 -12 -33 -14 -56 -2 -35 1 -43 16 -46 16 -2 18 4 16 49 -3
56 6 93 27 114 22 23 27 14 21 -39 -5 -39 -4 -49 5 -40 21 21 28 13 24 -24 -5
-36 -16 -60 -16 -34 0 7 -2 11 -5 8 -3 -3 -3 -13 1 -22 4 -12 19 -16 54 -16
l47 0 12 73 c12 74 30 127 43 127 5 0 8 -8 8 -19 0 -10 6 -24 14 -30 13 -11
32 -99 28 -133 -1 -10 5 -18 12 -18 14 0 19 55 16 177 -2 98 43 5 56 -115 l7
-62 33 0 c19 0 34 5 34 10 0 6 6 10 14 10 8 0 17 6 20 13 4 6 4 2 2 -10 -4
-21 0 -23 36 -23 39 0 40 1 34 28 -3 15 -9 114 -13 221 l-6 195 44 -26 c24
-14 55 -29 68 -33 14 -4 47 -22 75 -40 48 -30 115 -59 122 -52 2 2 -34 22 -79
45 -123 63 -222 127 -225 146 -5 21 2 20 46 -8 46 -31 162 -70 173 -59 4 4
-30 28 -77 53 -112 59 -195 140 -239 235 -51 110 -60 159 -48 261 8 66 8 94
-1 116 -7 15 -15 25 -19 21 -4 -3 -7 3 -7 15 0 11 -6 25 -13 29 -24 14 -44 68
-36 91 10 27 39 29 39 3 0 -27 16 -35 25 -13 4 9 9 57 11 106 3 80 2 88 -14
81 -13 -5 -14 -4 -5 6 10 10 18 10 38 -1 20 -10 25 -21 25 -49 0 -98 34 -139
130 -159 110 -21 131 -23 193 -11 121 23 147 51 162 173 l10 81 42 9 c63 13
93 -9 93 -70 0 -118 36 -170 137 -199 49 -14 72 -15 162 -6 190 19 201 27 201
146 0 61 1 64 32 79 17 9 33 16 35 16 3 0 3 -22 2 -48 -2 -33 3 -56 14 -72 9
-14 17 -31 18 -40 1 -27 18 23 18 55 2 79 39 167 71 170 3 0 11 4 18 9 21 13
42 -14 42 -55 0 -51 -27 -164 -50 -209 -10 -20 -24 -74 -31 -120 -17 -116 -53
-155 -51 -55 1 25 -2 45 -7 45 -16 0 -20 -76 -6 -134 32 -135 -11 -251 -144
-389 -61 -64 -140 -110 -238 -137 -34 -10 -69 -23 -79 -28 -16 -9 -16 -10 3
-21 17 -8 31 -6 70 10 111 47 179 82 201 102 25 23 26 18 12 -33 -18 -64 -230
-218 -357 -259 -41 -13 -58 -31 -30 -31 64 0 224 85 312 167 17 15 43 36 57
45 l27 17 -6 -132 -5 -132 -39 -62 c-22 -34 -39 -67 -39 -73 0 -6 -4 -8 -10
-5 -5 3 -10 1 -10 -4 0 -24 29 -9 44 24 22 46 40 46 33 0 l-6 -35 80 0 79 0 1
98 c1 53 5 108 9 122 l8 25 1 -27 c1 -15 6 -60 12 -100 20 -130 11 -118 85
-118 56 0 65 2 60 16 -3 9 -9 34 -13 57 -3 23 -9 44 -13 47 -11 9 -37 151 -28
156 4 3 8 -5 8 -18 0 -19 2 -20 10 -8 17 25 27 -4 47 -132 l18 -118 301 0 302
0 1 214 1 215 -42 35 c-52 45 -105 60 -167 49 -43 -7 -48 -12 -73 -61 -15 -29
-30 -77 -33 -107 -4 -30 -9 -55 -12 -55 -3 0 -37 11 -76 25 l-72 26 3 69 c4
71 -8 110 -33 110 -12 0 -15 -17 -15 -85 0 -93 -6 -98 -60 -50 -14 13 -54 37
-90 55 -125 62 -200 111 -200 131 0 11 4 19 8 19 9 0 88 118 98 146 4 11 14
27 23 37 11 14 16 43 16 116 1 74 5 103 18 121 9 14 17 37 17 52 0 42 25 126
60 203 27 59 32 83 34 152 1 72 -2 84 -22 106 -22 24 -23 29 -17 136 5 86 2
125 -10 176 -10 37 -15 67 -14 69 2 1 22 8 44 15 22 8 53 23 69 34 33 23 65
89 66 132 0 71 -78 135 -165 135 l-45 0 0 48 0 49 48 10 c26 6 61 9 77 6 61
-9 86 49 27 64 -24 6 -171 -13 -181 -23 -3 -2 -4 -43 -4 -90 1 -97 7 -105 81
-124 56 -14 82 -41 82 -84 0 -39 -30 -81 -77 -108 l-30 -17 -12 41 c-15 49
-33 80 -77 130 -22 25 -31 43 -27 57 4 15 -1 23 -20 30 -26 10 -31 41 -9 49
26 8 9 21 -39 27 -48 7 -50 8 -45 34 l6 26 -16 -22 c-22 -30 -28 -29 -52 9
-21 33 -24 34 -197 41 -39 2 -40 3 -43 40 -4 45 -20 48 -35 7 l-11 -30 -101 6
c-130 7 -142 10 -148 35 -6 21 -10 22 -84 15 -94 -8 -123 -26 -40 -26 31 0 57
-4 57 -10 0 -5 -3 -10 -7 -10 -5 0 -51 -7 -103 -14 -108 -17 -154 -31 -145
-46 3 -5 -12 -17 -34 -26 -22 -8 -42 -21 -45 -29 -2 -7 -30 -25 -62 -39 -49
-23 -59 -24 -73 -13 -20 18 -77 37 -108 37 -23 0 -23 0 10 47 45 64 78 86 133
89 25 1 47 4 49 6 1 2 -1 13 -6 26 -9 23 -32 27 -79 13z m1010 -325 c0 -8 -8
-28 -17 -44 -17 -29 -16 -29 18 -60 36 -33 49 -39 49 -22 0 6 6 10 14 10 9 0
16 -12 18 -29 3 -27 5 -28 22 -16 19 14 18 15 -7 36 -15 11 -27 26 -26 32 0 8
2 8 6 -1 2 -6 8 -10 11 -8 4 2 20 -13 35 -35 17 -24 23 -39 15 -39 -7 0 -1 -8
12 -17 14 -10 28 -17 31 -16 4 1 4 -7 1 -19 -3 -14 -1 -19 6 -14 7 4 12 1 12
-8 0 -8 3 -23 6 -33 8 -22 -32 18 -59 60 -10 15 -23 27 -29 27 -6 0 -3 -9 7
-20 10 -11 16 -22 13 -25 -9 -9 -39 45 -32 57 4 7 3 8 -5 4 -6 -4 -18 -2 -26
4 -16 13 -35 6 -35 -14 0 -7 -7 -13 -15 -13 -8 0 -15 4 -15 8 0 3 -9 9 -21 12
-19 5 -20 4 -5 -11 8 -10 12 -23 7 -30 -5 -9 -11 -5 -19 13 -6 14 -16 25 -22
25 -5 0 -10 9 -10 20 0 11 -3 20 -7 20 -13 0 -14 -63 -1 -100 27 -84 137 -221
214 -266 22 -13 49 -33 58 -43 19 -21 32 -81 18 -81 -5 0 -23 -3 -39 -6 -27
-5 -31 -3 -36 23 -3 16 -15 40 -26 54 -36 46 -177 61 -338 37 -63 -9 -83 -16
-105 -39 -16 -15 -28 -35 -28 -43 0 -13 -13 -16 -70 -16 -67 0 -70 1 -70 23 0
13 -8 31 -17 39 -42 36 -338 52 -413 22 -35 -14 -42 -22 -51 -59 -11 -44 -42
-66 -63 -45 -15 15 25 102 54 117 79 39 142 63 167 63 15 0 48 9 72 20 52 24
52 24 45 5 -9 -22 35 -19 104 6 31 12 82 22 112 23 55 2 119 26 141 52 6 8 17
14 24 14 14 0 85 67 85 80 0 12 36 55 103 120 31 32 58 66 58 76 2 33 4 39 19
62 16 24 50 30 50 8z m-1217 -411 c13 -18 17 -39 15 -73 l-3 -47 -44 -3 c-53
-4 -81 17 -81 63 0 73 75 112 113 60z m477 -191 c7 -19 7 -36 -2 -60 -10 -29
-9 -36 7 -54 27 -30 25 -88 -4 -111 -28 -23 -62 -24 -101 -4 -34 17 -39 39
-12 54 13 7 22 5 39 -11 23 -21 63 -18 63 6 0 22 -40 66 -61 66 -28 0 -24 35
7 49 39 17 24 37 -25 33 -45 -4 -53 9 -24 40 11 12 30 18 60 18 38 0 45 -3 53
-26z m96 -16 c-21 -97 -21 -100 5 -96 19 2 25 11 31 46 9 53 14 62 39 62 24 0
24 -8 -7 -139 -16 -71 -31 -111 -41 -115 -12 -5 -14 3 -11 46 3 52 3 53 -27
56 -16 2 -33 7 -37 10 -7 7 15 133 27 152 14 23 27 9 21 -22z m436 -31 c-3
-51 -1 -57 17 -57 16 0 22 11 31 55 9 45 15 55 32 55 18 0 20 -4 14 -47 -4
-27 -11 -68 -16 -93 -5 -25 -12 -62 -15 -82 -5 -32 -10 -38 -30 -38 -23 0 -24
3 -22 53 l2 52 -32 -3 c-38 -4 -40 2 -22 105 9 51 15 63 28 61 13 -3 15 -14
13 -61z m250 36 c22 -20 24 -76 3 -93 -20 -17 -19 -29 7 -50 20 -16 21 -20 10
-59 -19 -63 -68 -79 -130 -41 -24 15 -32 27 -30 42 5 32 23 32 52 1 21 -23 29
-26 44 -17 9 6 18 23 20 38 3 22 -2 29 -27 39 -37 14 -40 40 -6 55 37 17 34
52 -4 52 -17 0 -33 -4 -36 -10 -3 -5 -13 -10 -21 -10 -13 0 -13 4 1 29 8 16
20 31 27 34 27 11 72 6 90 -10z m-1179 -101 c30 -31 35 -62 11 -62 -13 0 -15
-5 -8 -27 5 -16 8 -47 7 -70 -1 -24 1 -43 6 -43 4 0 15 -19 25 -42 10 -24 28
-53 39 -65 17 -20 19 -29 11 -73 l-9 -50 -32 19 c-28 17 -33 29 -47 98 -9 43
-28 101 -42 128 -14 28 -31 77 -39 110 -12 52 -12 63 1 83 19 30 45 28 77 -6z
m2049 -976 c68 -45 96 -130 71 -216 -9 -30 -18 -57 -19 -58 -2 -2 -24 7 -51
21 -26 14 -59 28 -73 31 -14 3 -40 15 -57 26 -33 20 -39 39 -33 110 3 39 39
100 63 109 25 9 63 0 99 -23z"/>
<path d="M2542 2363 c-72 -69 -106 -203 -77 -297 21 -66 87 -135 132 -138 71
-4 95 7 167 74 40 36 41 39 44 113 3 43 -1 96 -8 121 -18 62 -79 128 -137 148
-66 23 -77 21 -121 -21z m146 -68 c42 -35 65 -90 70 -165 4 -64 3 -66 -33
-101 -45 -46 -86 -55 -134 -32 -41 21 -81 89 -81 139 0 40 33 147 51 168 23
25 92 20 127 -9z"/>
<path d="M2283 1733 c-15 -21 -40 -53 -55 -71 -15 -18 -28 -37 -28 -42 0 -15
38 -12 65 6 l24 16 0 -117 c0 -135 15 -215 42 -215 26 0 35 61 20 135 -7 34
-13 113 -13 176 0 164 -6 177 -55 112z"/>
<path d="M2462 1732 c-33 -33 -60 -94 -72 -164 -23 -128 32 -236 128 -253 33
-5 51 -1 99 22 68 34 88 66 98 160 11 100 0 145 -48 199 -41 45 -44 46 -113
51 -63 5 -74 3 -92 -15z m122 -52 c50 -44 69 -92 67 -167 -2 -102 -38 -146
-104 -129 -70 17 -103 86 -94 193 12 126 61 164 131 103z"/>
<path d="M196 1719 c-92 -72 -122 -277 -51 -353 25 -27 96 -50 125 -41 43 14
96 128 106 232 8 77 2 104 -37 148 -26 30 -37 35 -74 35 -28 0 -51 -7 -69 -21z
m115 -61 c17 -27 19 -44 15 -93 -6 -68 -29 -140 -53 -168 -31 -34 -105 5 -118
63 -10 44 11 145 39 189 23 35 31 41 61 41 29 0 39 -6 56 -32z"/>
<path d="M2787 1684 c-50 -102 -49 -229 3 -287 l29 -32 -1 188 c0 103 -1 187
-2 187 -1 0 -14 -25 -29 -56z"/>
<path d="M303 1095 c-39 -17 -60 -48 -69 -102 -5 -32 -3 -43 6 -43 17 0 45 33
60 70 11 26 18 30 51 30 44 0 50 -7 51 -59 0 -49 -32 -109 -77 -140 -49 -33
-86 -86 -92 -131 -5 -38 -5 -39 38 -50 57 -16 204 -7 224 14 34 34 14 45 -67
38 -65 -5 -108 3 -108 21 0 7 22 34 49 60 57 54 83 104 89 168 7 73 -11 114
-57 128 -48 14 -58 14 -98 -4z"/>
<path d="M12 1065 c-17 -38 -17 -408 0 -403 17 6 36 81 37 147 1 30 6 94 12
143 10 77 10 91 -5 113 -21 32 -30 32 -44 0z"/>
<path d="M2213 1083 c-54 -7 -37 -43 19 -43 18 0 17 -4 -12 -36 -41 -48 -38
-78 10 -79 70 0 107 -111 54 -160 -31 -29 -89 -33 -134 -10 -26 14 -29 13 -44
-9 -14 -23 -14 -26 11 -50 29 -30 59 -32 142 -14 38 9 65 23 87 44 35 36 42
59 36 122 -3 35 -13 52 -53 93 l-49 50 43 40 c35 32 39 41 27 49 -15 10 -73
11 -137 3z"/>
<path d="M2649 1068 c-6 -13 -36 -49 -65 -80 -30 -31 -54 -61 -54 -66 0 -16
30 -23 50 -12 10 6 21 10 23 10 3 0 -6 -44 -18 -97 -33 -144 -37 -171 -25
-178 18 -11 39 15 55 69 38 132 87 347 82 361 -9 22 -35 18 -48 -7z"/>
<path d="M1530 400 c-14 -4 -74 -8 -135 -9 -106 -1 -109 -2 -85 -18 14 -9 29
-23 33 -30 4 -7 17 -13 27 -13 10 0 22 -5 26 -12 7 -11 -6 -10 -82 8 -27 6
-28 5 -9 -8 11 -8 32 -18 47 -22 19 -4 25 -11 22 -21 -5 -11 1 -15 21 -15 20
0 26 4 21 15 -3 8 -1 15 3 15 5 0 11 -7 15 -15 7 -19 75 -21 78 -2 0 6 2 17 2
23 1 7 19 28 41 47 34 30 37 37 26 51 -15 18 -15 18 -51 6z"/>
<path d="M1412 170 c-19 -21 -92 -150 -92 -164 0 -3 56 -6 124 -6 l124 0 -39
69 c-22 37 -53 80 -68 95 l-29 28 -20 -22z"/>
</g>
</svg>
